<svg data-v-423bf9ae="" xmlns="http://www.w3.org/2000/svg" viewBox="0 0 111.60367204552621 60" class="font"><!----><!----><!----><g data-v-423bf9ae="" id="1a4e1ae5-732c-4460-85db-9aac8811420b" fill="white" transform="matrix(6.12870278179688,0,0,6.12870278179688,-2.574055339212258,-25.80183846831917)"><path d="M4.30 5.03C3.88 4.51 3.28 4.21 2.62 4.21C1.41 4.21 0.42 5.25 0.42 6.52C0.42 6.83 0.67 7.08 0.98 7.08C1.29 7.08 1.54 6.83 1.54 6.52C1.54 6.20 1.67 5.89 1.88 5.67C2.07 5.45 2.34 5.33 2.62 5.33C2.93 5.33 3.22 5.47 3.43 5.74C3.63 5.98 3.98 6.01 4.21 5.81C4.47 5.61 4.49 5.26 4.30 5.03ZM1.54 8.55L1.54 7.08C1.40 7.24 1.20 7.32 0.98 7.32C0.77 7.32 0.57 7.24 0.42 7.10L0.42 13.44C0.42 13.75 0.67 14 0.98 14C1.29 14 1.54 13.75 1.54 13.44L1.54 9.67L2.62 9.67C2.93 9.67 3.18 9.44 3.18 9.11C3.18 8.81 2.93 8.55 2.62 8.55ZM6.10 5.32C6.10 5.64 5.85 5.89 5.54 5.89C5.24 5.89 4.98 5.64 4.98 5.32C4.98 5.01 5.24 4.76 5.54 4.76C5.85 4.76 6.10 5.01 6.10 5.32ZM6.10 8.99C5.96 8.85 5.77 8.76 5.54 8.76C5.33 8.76 5.12 8.85 4.98 8.99L4.98 7.21C4.98 6.90 5.24 6.65 5.54 6.65C5.85 6.65 6.10 6.90 6.10 7.21ZM6.10 9.56L6.10 13.44C6.10 13.75 5.85 14 5.54 14C5.24 14 4.98 13.75 4.98 13.44L4.98 9.56L4.98 9.51C5.01 9.23 5.25 9.00 5.54 9.00C5.84 9.00 6.08 9.23 6.10 9.51ZM11.35 9.02C11.33 9.31 11.09 9.53 10.79 9.53C10.49 9.53 10.25 9.31 10.23 9.02L10.23 8.97C10.23 8.65 10.11 8.34 9.90 8.12C9.69 7.91 9.42 7.78 9.14 7.78C8.86 7.78 8.60 7.91 8.40 8.12C8.18 8.34 8.06 8.65 8.06 8.97C8.06 9.28 7.81 9.53 7.50 9.53C7.20 9.53 6.94 9.28 6.94 8.97C6.94 7.70 7.94 6.66 9.14 6.66C10.36 6.66 11.35 7.70 11.35 8.97ZM7.50 9.77C7.73 9.77 7.92 9.69 8.06 9.55L8.06 13.44C8.06 13.75 7.81 14 7.50 14C7.20 14 6.94 13.75 6.94 13.44L6.94 9.55C7.08 9.69 7.28 9.77 7.50 9.77ZM11.35 13.44C11.35 13.75 11.10 14 10.79 14C10.49 14 10.23 13.75 10.23 13.44L10.23 9.55C10.37 9.69 10.57 9.77 10.79 9.77C11.00 9.77 11.20 9.69 11.35 9.55ZM13.31 5.32C13.31 5.64 13.06 5.89 12.75 5.89C12.45 5.89 12.19 5.64 12.19 5.32C12.19 5.01 12.45 4.76 12.75 4.76C13.06 4.76 13.31 5.01 13.31 5.32ZM13.31 8.99C13.17 8.85 12.98 8.76 12.75 8.76C12.54 8.76 12.33 8.85 12.19 8.99L12.19 7.21C12.19 6.90 12.45 6.65 12.75 6.65C13.06 6.65 13.31 6.90 13.31 7.21ZM13.31 9.56L13.31 13.44C13.31 13.75 13.06 14 12.75 14C12.45 14 12.19 13.75 12.19 13.44L12.19 9.56L12.19 9.51C12.22 9.23 12.46 9.00 12.75 9.00C13.05 9.00 13.29 9.23 13.31 9.51ZM14.22 6.54C14.22 6.30 14.27 6.06 14.34 5.84C14.62 4.91 15.44 4.23 16.42 4.23L16.44 4.23C17.64 4.23 18.63 5.26 18.63 6.54C18.63 6.62 18.61 6.71 18.58 6.79C18.48 6.97 18.30 7.10 18.07 7.10C17.85 7.10 17.67 6.97 17.57 6.79C17.53 6.71 17.51 6.62 17.51 6.54C17.51 6.22 17.40 5.91 17.18 5.68C16.98 5.46 16.72 5.35 16.44 5.35C16.16 5.35 15.89 5.46 15.68 5.68C15.47 5.91 15.34 6.22 15.34 6.54C15.34 6.62 15.33 6.71 15.29 6.79C15.20 6.97 15.01 7.10 14.78 7.10C14.57 7.10 14.38 6.97 14.28 6.79C14.25 6.71 14.22 6.62 14.22 6.54ZM18.63 13.44C18.63 13.75 18.38 14 18.07 14L14.71 14C14.52 14 14.34 13.90 14.24 13.73C14.14 13.57 14.13 13.37 14.21 13.19L17.36 6.89C17.49 7.15 17.77 7.34 18.07 7.34C18.20 7.34 18.33 7.31 18.44 7.25L15.62 12.88L18.07 12.88C18.38 12.88 18.63 13.13 18.63 13.44Z"></path></g><!----><!----></svg>